<svg xmlns="http://www.w3.org/2000/svg" width="1200" height="560" viewBox="0 0 1200 560"><rect width="1200" height="560" rx="30" fill="#f6f3eb"/><text x="60" y="75" font-size="36" font-family="sans-serif" font-weight="700" fill="#164f4b">从一次核验，到多个平台</text><rect x="60" y="125" width="260" height="110" rx="20" fill="#e7f4f0" stroke="#83bdb5"/><rect x="60" y="285" width="260" height="110" rx="20" fill="#e7f4f0" stroke="#83bdb5"/><text x="100" y="180" font-size="25" font-family="sans-serif" fill="#164f4b">每日新闻研究</text><text x="88" y="340" font-size="25" font-family="sans-serif" fill="#164f4b">GitHub 热门研究</text><rect x="445" y="205" width="280" height="110" rx="20" fill="#fff" stroke="#f28b36" stroke-width="3"/><text x="490" y="260" font-size="27" font-family="sans-serif" font-weight="700" fill="#7e4b20">标准内容包 v1</text><rect x="850" y="125" width="280" height="110" rx="20" fill="#e8f1fb" stroke="#759fc9"/><rect x="850" y="285" width="280" height="110" rx="20" fill="#eee" stroke="#aaa" stroke-dasharray="8 7"/><text x="908" y="180" font-size="25" font-family="sans-serif" fill="#234d77">公众号内容制作</text><text x="914" y="340" font-size="25" font-family="sans-serif" fill="#777">其他平台（未来）</text><path d="M320 180C385 180 385 235 445 245M320 340C385 340 385 285 445 275M725 245C785 235 785 180 850 180M725 275C785 285 785 340 850 340" fill="none" stroke="#f28b36" stroke-width="6"/><text x="60" y="485" font-size="22" font-family="sans-serif" fill="#536b68">研究层决定“事实是什么”，平台层决定“怎样呈现”；自动化只负责何时运行。</text></svg>
