<svg xmlns="http://www.w3.org/2000/svg" width="1200" height="360" viewBox="0 0 1200 360" role="img" aria-labelledby="title desc">
  <title id="title">pink-mimi Skills 工具库</title>
  <desc id="desc">品牌粉色风格的 Agent Skills 工具库横幅</desc>
  <defs>
    <linearGradient id="bg" x1="0" y1="0" x2="1" y2="1">
      <stop offset="0" stop-color="#fff4f8"/>
      <stop offset="0.55" stop-color="#f9dce8"/>
      <stop offset="1" stop-color="#efb6cf"/>
    </linearGradient>
    <linearGradient id="orb" x1="0" y1="0" x2="1" y2="1">
      <stop offset="0" stop-color="#ff7eae"/>
      <stop offset="1" stop-color="#b83d72"/>
    </linearGradient>
    <filter id="shadow" x="-30%" y="-30%" width="160%" height="160%">
      <feDropShadow dx="0" dy="10" stdDeviation="18" flood-color="#8d315b" flood-opacity=".18"/>
    </filter>
  </defs>
  <rect width="1200" height="360" rx="28" fill="url(#bg)"/>
  <circle cx="1050" cy="28" r="150" fill="#fff" opacity=".28"/>
  <circle cx="1120" cy="305" r="115" fill="#d95c91" opacity=".12"/>
  <g transform="translate(770 60)" filter="url(#shadow)">
    <rect width="330" height="240" rx="28" fill="#fff" opacity=".94"/>
    <rect x="28" y="30" width="274" height="48" rx="14" fill="#fff0f6"/>
    <circle cx="53" cy="54" r="9" fill="#df5c91"/>
    <rect x="74" y="48" width="130" height="12" rx="6" fill="#80304f" opacity=".78"/>
    <rect x="28" y="96" width="132" height="112" rx="18" fill="#f6d3e2"/>
    <rect x="178" y="96" width="124" height="50" rx="16" fill="url(#orb)"/>
    <rect x="178" y="158" width="124" height="50" rx="16" fill="#5d2940"/>
    <path d="M66 154l22-25 22 18 23-33" fill="none" stroke="#b83d72" stroke-width="7" stroke-linecap="round" stroke-linejoin="round"/>
  </g>
  <g transform="translate(82 75)">
    <text x="0" y="0" dominant-baseline="hanging" fill="#b14272" font-family="Arial, 'Microsoft YaHei', sans-serif" font-size="20" font-weight="700" letter-spacing="5">PINK-MIMI SKILLS</text>
    <text x="0" y="62" dominant-baseline="hanging" fill="#4b2034" font-family="Arial, 'Microsoft YaHei', sans-serif" font-size="54" font-weight="800">我的 AI 技能工具箱</text>
    <text x="2" y="139" dominant-baseline="hanging" fill="#7d4b61" font-family="Arial, 'Microsoft YaHei', sans-serif" font-size="23">持续维护 · 即装即用 · 中文友好</text>
    <g transform="translate(0 194)" font-family="Arial, 'Microsoft YaHei', sans-serif" font-size="16" font-weight="700">
      <rect width="100" height="38" rx="19" fill="#fff"/><text x="50" y="25" text-anchor="middle" fill="#b14272">Codex</text>
      <rect x="114" width="142" height="38" rx="19" fill="#fff"/><text x="185" y="25" text-anchor="middle" fill="#b14272">Claude Code</text>
      <rect x="270" width="136" height="38" rx="19" fill="#fff"/><text x="338" y="25" text-anchor="middle" fill="#b14272">Agent Skills</text>
    </g>
  </g>
</svg>
